#!OML:ASF F:\VICON\USERDATA\INSTALL\rory3\rory3.ASF
:FULLY-SPECIFIED
:DEGREES
46
root 0.5657726976128091 18.70235236921033 7.894459965337561 5.003707617959022 -0.713360231303194 -3.2651994421722454
lfemur -36.31516970652502 -0.9907115375924479 -13.091106837518007
ltibia 86.24186368158082
lfoot 11.093877325189041 -12.546426451999576
ltoes -16.939753877756146
rfemur -8.591546013883914 4.2620024617617895 32.548492739413334
rtibia 45.7273821361608
rfoot 22.3785044443431 -3.6114313365057975
rtoes -5.905949255869965
lowerback 15.78951225118992 1.3030669380295938 4.63140425172076
upperback -0.7052624590316574 3.439502155388996 2.1481373267806427
thorax -9.05924095553007 1.042513000797289 -1.1132442291179818
lowerneck -18.703211840145837 -3.8512478615938077 -2.6788328763399343
upperneck 7.063632835769385 -6.27196472878465 6.398008404487307
head 5.608659120402476 -2.2601679912142743 1.5298865791387897
lclavicle -1.5429214541808143e-15 -3.305650223444465e-15
lhumerus -58.99531879048939 -5.717860332546351 89.78441390022711
lradius 102.99033485540119
lwrist 29.94803395588854
lhand -23.74675731511049 4.511492431804582
lfingers 7.12502
lthumb 2.458354231236617 34.176360090641595
rclavicle -1.5439938379934484e-15 -3.2959539367980115e-15
rhumerus -44.5753128537855 16.12637395257803 -99.39698812428045
rradius 109.98170635417824
rwrist -22.555873594879277
rhand -18.327792934465844 40.34519443987993
rfingers 7.12502
rthumb 8.061055381652924 10.63546199036886
47
root 0.5869703708191412 18.670372881185543 8.392838821010018 5.074751957870593 -0.8599868408822166 -3.1442662377249544
lfemur -34.97484902699095 -4.615813079284223 -13.12759499749045
ltibia 78.1191041560439
lfoot 10.573483794797713 -12.38949710760891
ltoes -17.925733451681364
rfemur -8.52431632374153 4.162105324553158 32.67175555690048
rtibia 43.006738757401415
rfoot 22.99915283035728 -4.232120833767056
rtoes -5.64024794743459
lowerback 15.600659452204448 1.4971174561264664 4.915837798394613
upperback -0.818415701401522 3.7599756969263742 2.073325957591291
thorax -9.016842972177107 1.2321817839980485 -1.668105549370579
lowerneck -18.728721511448146 -3.9126132084156264 -2.691972112017537
upperneck 7.198399180682871 -6.353616157941712 6.481186509642994
head 5.5864800269115555 -2.271471542454487 1.5578204807119844
lclavicle -1.5429205414604416e-15 -3.3056510438496197e-15
lhumerus -60.39530174557967 -5.065648057261862 88.82143297423268
lradius 102.79782378201439
lwrist 29.863358420749368
lhand -23.723189971201247 4.487384129086447
lfingers 7.12502
lthumb 2.497312664871243 34.16448434910507
rclavicle -1.5439931875980401e-15 -3.2959534321950335e-15
rhumerus -45.55901744250437 15.20202768346476 -99.03944603647663
rradius 111.88745592352576
rwrist -22.531118097346138
rhand -18.323517746915854 40.283411764769426
rfingers 7.12502
rthumb 8.036641084719067 10.459756732315583
48
root 0.6067227869871866 18.637878155317118 8.892796834160187 5.169208788108636 -0.9721808692321164 -3.0276582479508534
lfemur -33.39851171432542 -6.357542605246013 -13.732982083839781
ltibia 67.68993005898973
lfoot 11.494414981228498 -11.872248600873483
ltoes -18.495813460580262
rfemur -8.259812246291546 4.082029254978276 32.693047065755884
rtibia 39.863121532799354
rfoot 23.279809326308847 -4.729695843535633
rtoes -2.7202451897010578
lowerback 15.329763627949115 1.6542771687395055 5.089682016315022
upperback -0.9246466104236101 4.00774441266404 1.9888028411108705
thorax -8.948379670354296 1.40253395275269 -2.150568364724554
lowerneck -18.774165317570468 -3.9590653305564762 -2.705803867961985
upperneck 7.503539703728659 -6.488829071044775 6.558016879026622
head 5.569770659974718 -2.2779683034908946 1.5839734955899984
lclavicle -1.542922021432724e-15 -3.305653745472355e-15
lhumerus -61.484905517723476 -4.355608992422718 87.79400089172668
lradius 102.93561684255835
lwrist 29.992198846485614
lhand -23.722264111291054 4.451802499604922
lfingers 7.12502
lthumb 2.5223579157794345 34.15520957545041
rclavicle -1.5439961738619438e-15 -3.295955609912692e-15
rhumerus -46.34154101197308 14.369213120748482 -98.57173846698767
rradius 114.0036720614981
rwrist -22.854544846543586
rhand -18.32360019630463 40.206218096693966
rfingers 7.12502
rthumb 8.000584731452022 10.282801405341408
49
root 0.6242563079884024 18.595476248746785 9.417069986292617 5.2735485479475095 -0.9923575892190147 -2.9386186496694098
lfemur -31.87686007062679 -5.914845336781867 -14.994118974776292
ltibia 56.386282658811886
lfoot 12.921725011013013 -11.12756533935011
ltoes -18.748356607672424
rfemur -8.215104667979563 3.8503505178698747 32.5741592806434
rtibia 37.439406937038314
rfoot 22.451676236842374 -4.980709240591469
rtoes 2.811334218078445
lowerback 15.006450986726556 1.779062684630106 5.150139595386205
upperback -1.0122373786861583 4.191469723420304 1.872161939361191
thorax -8.81339918161046 1.5577377490737256 -2.504620096294381
lowerneck -18.828572155966118 -3.9815597247551477 -2.7173390401086452
upperneck 7.766624507634693 -6.662135837273136 6.597159916614252
head 5.555756115866386 -2.287359616660103 1.5992733279613196
lclavicle -1.5429241026035227e-15 -3.3056540603972625e-15
lhumerus -62.14359534046959 -3.6967673643538 86.91273686183263
lradius 103.360935347031
lwrist 30.23896078977174
lhand -23.736799348729136 4.372261477081113
lfingers 7.12502
lthumb 2.524180829892948 34.10007486860207
rclavicle -1.543996890997599e-15 -3.2959560485953724e-15
rhumerus -47.122278839988276 13.512756464375759 -98.07768632058662
rradius 116.14884620891341
rwrist -23.066837739187672
rhand -18.228579555799246 40.24472674350978
rfingers 7.12502
rthumb 8.014643980616329 10.188542073595821
50
root 0.6385199184713614 18.53070263934045 9.73477556054354 5.357129056020619 -1.0278482162331906 -2.9400169482965834
lfemur -30.201045472537487 -4.688771314091607 -16.599265262088316
ltibia 45.991414482755395
lfoot 10.789930070811927 -11.041081491381924
ltoes -19.041366446206435
rfemur -8.39223612973996 3.50303323778967 32.33386856110325
rtibia 37.1432773787544
rfoot 20.972528383688303 -5.175292400709095
rtoes 8.65978807248581
lowerback 14.697827593154825 1.8768729306683896 5.101682019500986
upperback -1.0749709814945065 4.295157669963803 1.6959827366175366
thorax -8.638512347548108 1.6847463939810403 -2.730875551318904
lowerneck -18.88125968188368 -3.99005679489713 -2.7314892078314914
upperneck 7.786587319820712 -6.807460073538798 6.695323317877248
head 5.527648746061983 -2.311364698676167 1.615344981487155
lclavicle -1.5429281654033554e-15 -3.3056559191808252e-15
lhumerus -62.64424673926791 -3.197966763167497 86.09100994582205
lradius 104.046117745599
lwrist 30.481360637548743
lhand -23.760483832644038 4.299268418101338
lfingers 7.12502
lthumb 2.514896443105811 34.05177212519189
rclavicle -1.5439971501699145e-15 -3.2959562717845634e-15
rhumerus -47.928910531528004 12.615880257239832 -97.61602276038369
rradius 118.21073344003885
rwrist -23.003030735678664
rhand -18.20490196956875 40.1486691160599
rfingers 7.12502
rthumb 8.022003698713542 10.148465540038469
51
root 0.6557956089008126 18.459197369086645 10.218162046732713 5.396679486155949 -1.0888147115541154 -2.9215156968169333
lfemur -28.131072723512567 -3.7953099676025017 -18.236600837672775
ltibia 39.08944096323645
lfoot 9.643549526138495 -10.258354227305155
ltoes -18.740085348342674
rfemur -9.164529354595569 2.9483984317754377 31.805396071516945
rtibia 39.470528000010816
rfoot 20.814973972394753 -5.025409530874763
rtoes 12.403384493425085
lowerback 14.455933039693832 1.9492547677682435 4.949177509500517
upperback -1.1121396299479442 4.310401403225239 1.4439253826199983
thorax -8.46986685167407 1.7771777803869497 -2.8548366874996107
lowerneck -18.92256358181857 -3.993270561231571 -2.750167590561555
upperneck 7.513978432294586 -6.912134909540995 6.7939114049187115
head 5.484120899758493 -2.3446180257847504 1.6400589323582362
lclavicle -1.542931706158632e-15 -3.3056600947263064e-15
lhumerus -62.62820249306016 -2.812653211480278 85.5031448902823
lradius 104.9776240448826
lwrist 30.659702503041405
lhand -23.778985707028028 4.219172354395748
lfingers 7.12502
lthumb 2.500280019502779 33.987184335039004
rclavicle -1.5439982620811284e-15 -3.2959570222832247e-15
rhumerus -48.474886933192415 11.953475261226354 -97.0279140005521
rradius 120.11994928767481
rwrist -22.959123560502363
rhand -18.19172454380576 40.03705751635288
rfingers 7.12502
rthumb 8.010347198203517 10.141357446443067
52
root 0.675770133564122 18.38574588993789 10.720130777085386 5.386628111899112 -1.111224022778229 -2.833208587309369
lfemur -25.817571179685416 -3.2108470362099526 -19.847914502488226
ltibia 37.38989427437686
lfoot 8.635567614987844 -9.43461061658404
ltoes -17.86132528084858
rfemur -10.320226988212841 2.3487238128585246 31.20355916458608
rtibia 44.24150477546307
rfoot 19.47401500061807 -5.277790771747648
rtoes 13.777820313854273
lowerback 14.310040271998416 1.9916753360947101 4.663259701430076
upperback -1.1439150275492178 4.2080162061824025 1.1216553754290473
thorax -8.335467095765253 1.8371185116494453 -2.8743336659001724
lowerneck -18.914818494823503 -3.993213244822825 -2.77116537549094
upperneck 7.16700367002449 -6.955445464452966 6.8997099062053096
head 5.441095884050776 -2.3950212956852357 1.675801302479114
lclavicle -1.5429297962934955e-15 -3.3056583242348456e-15
lhumerus -62.214141391553284 -2.6399968698367555 85.243279551513
lradius 106.14076784422377
lwrist 30.790430029321058
lhand -23.801707530559376 4.1369628377872845
lfingers 7.12502
lthumb 2.486707702315174 33.93150968517391
rclavicle -1.5439975179184944e-15 -3.295956497894191e-15
rhumerus -49.31161114440297 11.310362881901572 -96.50979922610935
rradius 121.68338560937846
rwrist -22.71358006349993
rhand -18.205328453519247 39.94933439837709
rfingers 7.12502
rthumb 7.975227173676413 10.13523106564324
